<?xml version="1.0" encoding="UTF-8" standalone="no"?>
<svg
   xmlns:dc="http://purl.org/dc/elements/1.1/"
   xmlns:cc="http://creativecommons.org/ns#"
   xmlns:rdf="http://www.w3.org/1999/02/22-rdf-syntax-ns#"
   xmlns:svg="http://www.w3.org/2000/svg"
   xmlns="http://www.w3.org/2000/svg"
   xmlns:sodipodi="http://sodipodi.sourceforge.net/DTD/sodipodi-0.dtd"
   xmlns:inkscape="http://www.inkscape.org/namespaces/inkscape"
   height="30"
   version="1.1"
   viewBox="0 0 30 30"
   width="30"
   id="svg2"
   inkscape:version="0.91 r13725"
   sodipodi:docname="mute-active.svg">
  <metadata
     id="metadata16">
    <rdf:RDF>
      <cc:Work
         rdf:about="">
        <dc:format>image/svg+xml</dc:format>
        <dc:type
           rdf:resource="http://purl.org/dc/dcmitype/StillImage" />
        <dc:title />
      </cc:Work>
    </rdf:RDF>
  </metadata>
  <sodipodi:namedview
     pagecolor="#ffffff"
     bordercolor="#666666"
     borderopacity="1"
     objecttolerance="10"
     gridtolerance="10"
     guidetolerance="10"
     inkscape:pageopacity="0"
     inkscape:pageshadow="2"
     inkscape:window-width="1920"
     inkscape:window-height="1017"
     id="namedview14"
     showgrid="false"
     inkscape:zoom="19.753146"
     inkscape:cx="42.769983"
     inkscape:cy="23.967007"
     inkscape:window-x="-8"
     inkscape:window-y="-8"
     inkscape:window-maximized="1"
     inkscape:current-layer="svg2" />
  <desc
     id="desc6" />
  <defs
     id="defs8" />
  <g
     id="miu"
     transform="translate(2.96983,3)"
     style="fill:#ffffff;fill-rule:evenodd;stroke:none;stroke-width:1">
    <g
       id="Artboard-1"
       transform="translate(-755,-551)"
       style="fill:#ffffff">
      <g
         id="slice"
         transform="translate(215,119)"
         style="fill:#ffffff" />
      <path
         d="m 767,563.97905 0,7.02095 -7.875,-4.8 -2.08333,0 C 756,566.2 756,565.13333 756,565.13333 l 0,-4.26666 c 0,0 0,-1.06667 1.04167,-1.06667 l 2.08333,0 0.72524,-0.44205 7.14976,4.6211 0,0 z m 0,-3.57207 0,-5.40698 -4.30542,2.62426 4.30542,2.78272 0,0 z m 9.40766,6.08046 C 776.79132,565.39683 777,564.22379 777,563.00201 c 0,-3.05925 -1.30833,-5.81292 -3.39598,-7.73202 l -0.76522,0.65591 c 1.94037,1.73936 3.1612,4.26516 3.1612,7.07611 0,1.02071 -0.16097,2.00382 -0.45892,2.92533 l 0.86658,0.5601 0,0 z m -1.39877,2.668 c -0.46378,0.6402 -0.99805,1.226 -1.5914,1.74602 l -0.8015,-0.62974 c 0.5808,-0.48913 1.10215,-1.04659 1.55168,-1.65998 l 0.84122,0.5437 0,0 z m -1.12323,-4.29805 c 0.0752,-0.44055 0.11434,-0.8934 0.11434,-1.35538 0,-2.45841 -1.1089,-4.65781 -2.8538,-6.12532 l -0.77095,0.66082 c 1.60017,1.28286 2.62475,3.25403 2.62475,5.4645 0,0.2557 -0.0137,0.50821 -0.0404,0.75682 l 0.9261,0.59856 0,0 z m -1.08984,2.86768 c -0.37495,0.60209 -0.82768,1.15072 -1.34414,1.63183 l -0.79723,-0.6264 c 0.50463,-0.44955 0.94375,-0.97105 1.30127,-1.54841 l 0.8401,0.54298 0,0 z m -1.82331,-4.75053 c -0.15687,-1.49616 -0.97355,-2.79586 -2.15379,-3.60286 l 0,0 -0.79352,0.68016 c 0.81757,0.48094 1.44914,1.24419 1.76073,2.15577 l 1.18658,0.76693 0,0 z m -0.69717,3.12146 c -0.322,0.52958 -0.73963,0.99459 -1.2289,1.37107 l -0.81806,-0.64277 c 0.48983,-0.3292 0.90287,-0.76386 1.20658,-1.27146 l 0.84038,0.54316 0,0 z m -12.31343,-9.29449 19.55249,12.87427 0.54594,-0.83783 -19.55249,-12.87426 -0.54594,0.83782 z"
         id="device-volume-loudspeaker-speaker-mute-glyph"
         inkscape:connector-curvature="0"
         style="fill:#ffffff" />
    </g>
  </g>
</svg>
