<?xml version="1.0" encoding="UTF-8" standalone="no"?>
<!-- Created with Inkscape (http://www.inkscape.org/) -->

<svg
   xmlns:dc="http://purl.org/dc/elements/1.1/"
   xmlns:cc="http://creativecommons.org/ns#"
   xmlns:rdf="http://www.w3.org/1999/02/22-rdf-syntax-ns#"
   xmlns:svg="http://www.w3.org/2000/svg"
   xmlns="http://www.w3.org/2000/svg"
   xmlns:sodipodi="http://sodipodi.sourceforge.net/DTD/sodipodi-0.dtd"
   xmlns:inkscape="http://www.inkscape.org/namespaces/inkscape"
   width="8.4666662mm"
   height="8.4666662mm"
   viewBox="0 0 29.999998 29.999998"
   id="svg2"
   version="1.1"
   inkscape:version="0.91 r13725"
   sodipodi:docname="screen-rotae-lock.svg">
  <defs
     id="defs4" />
  <sodipodi:namedview
     id="base"
     pagecolor="#ffffff"
     bordercolor="#666666"
     borderopacity="1.0"
     inkscape:pageopacity="0.0"
     inkscape:pageshadow="2"
     inkscape:zoom="11.2"
     inkscape:cx="10.607664"
     inkscape:cy="17.262046"
     inkscape:document-units="px"
     inkscape:current-layer="layer1"
     showgrid="false"
     fit-margin-top="0"
     fit-margin-left="0"
     fit-margin-right="0"
     fit-margin-bottom="0"
     inkscape:window-width="1920"
     inkscape:window-height="1017"
     inkscape:window-x="-8"
     inkscape:window-y="-8"
     inkscape:window-maximized="1" />
  <metadata
     id="metadata7">
    <rdf:RDF>
      <cc:Work
         rdf:about="">
        <dc:format>image/svg+xml</dc:format>
        <dc:type
           rdf:resource="http://purl.org/dc/dcmitype/StillImage" />
        <dc:title></dc:title>
      </cc:Work>
    </rdf:RDF>
  </metadata>
  <g
     inkscape:label="Layer 1"
     inkscape:groupmode="layer"
     id="layer1"
     transform="translate(-108.2619,-65.931976)">
    <g
       style="fill:#ffffff"
       id="g4167"
       transform="translate(111.2619,68.931979)">
      <path
         id="path4157"
         d="m 23.25,12.77 -2.57,-2.57 -1.41,1.41 2.22,2.22 -5.66,5.66 L 4.51,8.17 10.17,2.51 12.27,4.61 13.68,3.2 11.23,0.75 C 10.64,0.16 9.69,0.16 9.11,0.75 L 2.75,7.11 c -0.59,0.59 -0.59,1.54 0,2.12 l 12.02,12.02 c 0.59,0.59 1.54,0.59 2.12,0 l 6.36,-6.36 c 0.59,-0.59 0.59,-1.54 0,-2.12 z M 8.47,20.48 C 5.2,18.94 2.86,15.76 2.5,12 L 1,12 c 0.51,6.16 5.66,11 11.95,11 L 13.61,22.97 9.8,19.15 8.47,20.48 Z M 16,9 21,9 c 0.55,0 1,-0.45 1,-1 L 22,4 C 22,3.45 21.55,3 21,3 L 21,2.5 C 21,1.12 19.88,0 18.5,0 17.12,0 16,1.12 16,2.5 L 16,3 c -0.55,0 -1,0.45 -1,1 l 0,4 c 0,0.55 0.45,1 1,1 z m 0.8,-6.5 c 0,-0.94 0.76,-1.7 1.7,-1.7 0.94,0 1.7,0.76 1.7,1.7 l 0,0.5 -3.4,0 0,-0.5 z"
         inkscape:connector-curvature="0" />
      <path
         id="path4159"
         d="M 0,0 24,0 24,24 0,24 Z"
         inkscape:connector-curvature="0"
         style="fill:none" />
    </g>
  </g>
</svg>
