<?xml version="1.0" encoding="UTF-8" standalone="no"?>
<svg
   xmlns:dc="http://purl.org/dc/elements/1.1/"
   xmlns:cc="http://creativecommons.org/ns#"
   xmlns:rdf="http://www.w3.org/1999/02/22-rdf-syntax-ns#"
   xmlns:svg="http://www.w3.org/2000/svg"
   xmlns="http://www.w3.org/2000/svg"
   xmlns:sodipodi="http://sodipodi.sourceforge.net/DTD/sodipodi-0.dtd"
   xmlns:inkscape="http://www.inkscape.org/namespaces/inkscape"
   height="30"
   version="1.1"
   viewBox="0 0 30 30"
   width="30"
   id="svg2"
   inkscape:version="0.91 r13725"
   sodipodi:docname="sound.svg">
  <metadata
     id="metadata16">
    <rdf:RDF>
      <cc:Work
         rdf:about="">
        <dc:format>image/svg+xml</dc:format>
        <dc:type
           rdf:resource="http://purl.org/dc/dcmitype/StillImage" />
        <dc:title></dc:title>
      </cc:Work>
    </rdf:RDF>
  </metadata>
  <sodipodi:namedview
     pagecolor="#ffffff"
     bordercolor="#666666"
     borderopacity="1"
     objecttolerance="10"
     gridtolerance="10"
     guidetolerance="10"
     inkscape:pageopacity="0"
     inkscape:pageshadow="2"
     inkscape:window-width="1920"
     inkscape:window-height="1017"
     id="namedview14"
     showgrid="false"
     inkscape:zoom="7.4804817"
     inkscape:cx="26.381375"
     inkscape:cy="32.367941"
     inkscape:window-x="-8"
     inkscape:window-y="-8"
     inkscape:window-maximized="1"
     inkscape:current-layer="svg2"
     showborder="true"
     fit-margin-top="0"
     fit-margin-left="0"
     fit-margin-right="0"
     fit-margin-bottom="0" />
  <desc
     id="desc6" />
  <defs
     id="defs8" />
  <g
     id="miu"
     transform="translate(3.5,3)"
     style="fill:#ffffff;fill-rule:evenodd;stroke:none;stroke-width:1">
    <g
       id="Artboard-1"
       transform="translate(-683,-551)"
       style="fill:#ffffff">
      <g
         id="slice"
         transform="translate(215,119)"
         style="fill:#ffffff" />
      <path
         d="m 687.125,559.8 -2.08333,0 C 684,559.8 684,560.86667 684,560.86667 l 0,4.26666 c 0,0 0,1.06667 1.04167,1.06667 l 2.08333,0 7.875,4.8 0,-16 -7.875,4.8 z m 14.47902,-4.53001 c 2.08765,1.9191 3.39598,4.67277 3.39598,7.73202 0,3.14938 -1.38655,5.97491 -3.58251,7.89945 l -0.8015,-0.62974 C 702.68525,568.52905 704,565.91907 704,563.00201 c 0,-2.81095 -1.22083,-5.33675 -3.1612,-7.07611 l 0.76522,-0.65591 z m -2.45782,2.1067 c 1.7449,1.46751 2.8538,3.66691 2.8538,6.12532 0,2.3117 -0.98051,4.39439 -2.54832,5.85489 l -0.79723,-0.6264 C 700.09362,567.44843 701,565.58106 701,563.50201 c 0,-2.21047 -1.02458,-4.18164 -2.62475,-5.4645 l 0.77095,-0.66082 z m -2.32748,1.99499 c 1.31698,0.9005 2.18128,2.41448 2.18128,4.13033 0,1.61487 -0.76557,3.05093 -1.95356,3.96506 l -0.81806,-0.64277 C 697.29691,566.10618 698,564.8862 698,563.50201 c 0,-1.47014 -0.79311,-2.75504 -1.9748,-3.45017 l 0.79352,-0.68016 0,0 z"
         id="device-volume-loudspeaker-speaker-up-glyph"
         inkscape:connector-curvature="0"
         style="fill:#ffffff" />
    </g>
  </g>
</svg>
